<svg id="Capa_1" data-name="Capa 1" xmlns="http://www.w3.org/2000/svg" viewBox="0 0 841.89 595.28"><defs><style>.cls-1{font-size:129.22px;fill:#868686;font-family:Lato;font-style:italic;letter-spacing:-5px;}.cls-2{font-weight:700;letter-spacing:-2px;}.cls-3{fill:#c85721;}.cls-4{fill:#d27b45;}.cls-5{fill:#fff;}</style></defs><title>aplicaciones_fp_emplea</title><text class="cls-1" transform="translate(151.97 340.76)">f<tspan class="cls-2" x="38.12" y="0">p</tspan><tspan x="104.28" y="0">e</tspan><tspan x="158.81" y="0">mplea</tspan></text><path class="cls-3" d="M689.92,261.36a39.14,39.14,0,1,1-39.14-39.14,39.14,39.14,0,0,1,39.14,39.14h0Zm0,0"/><path class="cls-4" d="M611.63,261.36a39.14,39.14,0,0,0,39.14,39.14V222.21a39.14,39.14,0,0,0-39.14,39.14h0Zm0,0"/><path class="cls-5" d="M661.58,250.56a10.8,10.8,0,1,0-16.74,9l-3.51,24.73h18.89l-3.51-24.73a10.8,10.8,0,0,0,4.86-9h0Zm0,0"/></svg>