<svg id="Capa_1" data-name="Capa 1" xmlns="http://www.w3.org/2000/svg" xmlns:xlink="http://www.w3.org/1999/xlink" viewBox="0 0 841.89 595.28"><defs><style>.cls-1,.cls-4{fill:#c85721;}.cls-2{font-size:129.22px;fill:#868686;letter-spacing:-5px;}.cls-2,.cls-4{font-family:Lato;font-style:italic;}.cls-3,.cls-6{font-weight:700;}.cls-3,.cls-5{letter-spacing:-2px;}.cls-4{font-size:47.58px;letter-spacing:-1px;}.cls-7{clip-path:url(#clip-path);}.cls-8{fill:#d27b45;}</style><clipPath id="clip-path"><path class="cls-1" d="M675.75,232.12a18.49,18.49,0,1,0-28.66,15.43l-6,42.35h32.35l-6-42.35a18.49,18.49,0,0,0,8.32-15.43h0Zm0,0"/></clipPath></defs><title>aplicaciones_fp_emplea</title><text class="cls-2" transform="translate(166.14 320.37)">f<tspan class="cls-3" x="38.12" y="0">p</tspan><tspan x="104.28" y="0">e</tspan><tspan x="158.81" y="0">mplea</tspan></text><text class="cls-4" transform="translate(295.9 374.7)">la lla<tspan class="cls-5" x="76.12" y="0">v</tspan><tspan x="95.23" y="0">e </tspan><tspan class="cls-6" x="121.85" y="0">a tu futu</tspan><tspan class="cls-3" x="273.95" y="0">r</tspan><tspan class="cls-6" x="288.48" y="0">o</tspan></text><path class="cls-1" d="M675.75,232.12a18.49,18.49,0,1,0-28.66,15.43l-6,42.35h32.35l-6-42.35a18.49,18.49,0,0,0,8.32-15.43h0Zm0,0"/><g class="cls-7"><rect class="cls-8" x="657.26" y="201.42" width="105.25" height="105.25"/></g></svg>