<svg id="Capa_1" data-name="Capa 1" xmlns="http://www.w3.org/2000/svg" viewBox="0 0 841.89 595.28"><defs><style>.cls-1{font-size:129.22px;fill:#868686;letter-spacing:-5px;}.cls-1,.cls-6{font-family:Lato;font-style:italic;}.cls-2,.cls-8{font-weight:700;}.cls-2,.cls-7{letter-spacing:-2px;}.cls-3,.cls-6{fill:#c85721;}.cls-4{fill:#d27b45;}.cls-5{fill:#fff;}.cls-6{font-size:47.58px;letter-spacing:-1px;}</style></defs><title>aplicaciones_fp_emplea</title><text class="cls-1" transform="translate(151.97 322.96)">f<tspan class="cls-2" x="38.12" y="0">p</tspan><tspan x="104.28" y="0">e</tspan><tspan x="158.81" y="0">mplea</tspan></text><path class="cls-3" d="M689.92,243.55a39.14,39.14,0,1,1-39.14-39.14,39.14,39.14,0,0,1,39.14,39.14h0Zm0,0"/><path class="cls-4" d="M611.63,243.55a39.14,39.14,0,0,0,39.14,39.14V204.41a39.14,39.14,0,0,0-39.14,39.14h0Zm0,0"/><path class="cls-5" d="M661.58,232.76a10.8,10.8,0,1,0-16.74,9l-3.51,24.73h18.89l-3.51-24.73a10.8,10.8,0,0,0,4.86-9h0Zm0,0"/><text class="cls-6" transform="translate(281.73 378.97)">la lla<tspan class="cls-7" x="76.12" y="0">v</tspan><tspan x="95.23" y="0">e </tspan><tspan class="cls-8" x="121.85" y="0">a tu futu</tspan><tspan class="cls-2" x="273.95" y="0">r</tspan><tspan class="cls-8" x="288.48" y="0">o</tspan></text></svg>