<svg id="Capa_1" data-name="Capa 1" xmlns="http://www.w3.org/2000/svg" xmlns:xlink="http://www.w3.org/1999/xlink" viewBox="0 0 841.89 595.28"><defs><style>.cls-1{fill:#c85721;}.cls-2{font-size:129.22px;fill:#868686;font-family:Lato;font-style:italic;letter-spacing:-5px;}.cls-3{font-weight:700;letter-spacing:-2px;}.cls-4{clip-path:url(#clip-path);}.cls-5{fill:#d27b45;}</style><clipPath id="clip-path"><path class="cls-1" d="M675.75,249.08a18.49,18.49,0,1,0-28.66,15.43l-6,42.35h32.35l-6-42.35a18.49,18.49,0,0,0,8.32-15.43h0Zm0,0"/></clipPath></defs><title>aplicaciones_fp_emplea</title><text class="cls-2" transform="translate(166.14 337.33)">f<tspan class="cls-3" x="38.12" y="0">p</tspan><tspan x="104.28" y="0">e</tspan><tspan x="158.81" y="0">mplea</tspan></text><path class="cls-1" d="M675.75,249.08a18.49,18.49,0,1,0-28.66,15.43l-6,42.35h32.35l-6-42.35a18.49,18.49,0,0,0,8.32-15.43h0Zm0,0"/><g class="cls-4"><rect class="cls-5" x="657.26" y="218.37" width="105.25" height="105.25"/></g></svg>