<svg id="Capa_1" data-name="Capa 1" xmlns="http://www.w3.org/2000/svg" xmlns:xlink="http://www.w3.org/1999/xlink" viewBox="0 0 841.89 595.28"><defs><style>.cls-1{fill:#c85721;}.cls-2{font-size:120.52px;fill:#868686;font-family:Lato;font-style:italic;letter-spacing:-4px;}.cls-3{font-weight:700;letter-spacing:-2px;}.cls-4{clip-path:url(#clip-path);}.cls-5{fill:#d27b45;}</style><clipPath id="clip-path"><path class="cls-1" d="M435.46,205.3a26.87,26.87,0,1,0-41.65,22.42l-8.72,61.54h47l-8.72-61.54a26.87,26.87,0,0,0,12.09-22.42h0Zm0,0"/></clipPath></defs><title>aplicaciones_fp_emplea</title><text class="cls-2" transform="translate(212.11 386.73)">f<tspan class="cls-3" x="35.55" y="0">p</tspan><tspan x="97.26" y="0">e</tspan><tspan x="148.12" y="0">mplea</tspan></text><path class="cls-1" d="M435.46,205.3a26.87,26.87,0,1,0-41.65,22.42l-8.72,61.54h47l-8.72-61.54a26.87,26.87,0,0,0,12.09-22.42h0Zm0,0"/><g class="cls-4"><rect class="cls-5" x="408.59" y="160.68" width="152.96" height="152.96"/></g></svg>