<svg id="Capa_1" data-name="Capa 1" xmlns="http://www.w3.org/2000/svg" xmlns:xlink="http://www.w3.org/1999/xlink" viewBox="0 0 841.89 595.28"><defs><style>.cls-1,.cls-4{fill:#c85721;}.cls-2{font-size:120.52px;fill:#868686;letter-spacing:-4px;}.cls-2,.cls-4{font-family:Lato;font-style:italic;}.cls-3,.cls-6{font-weight:700;}.cls-3,.cls-5{letter-spacing:-2px;}.cls-4{font-size:44.38px;letter-spacing:-1px;}.cls-7{clip-path:url(#clip-path);}.cls-8{fill:#d27b45;}</style><clipPath id="clip-path"><path class="cls-1" d="M435.46,179.27a26.87,26.87,0,1,0-41.65,22.42l-8.72,61.54h47l-8.72-61.54a26.87,26.87,0,0,0,12.09-22.42h0Zm0,0"/></clipPath></defs><title>aplicaciones_fp_emplea</title><text class="cls-2" transform="translate(212.11 360.7)">f<tspan class="cls-3" x="35.55" y="0">p</tspan><tspan x="97.26" y="0">e</tspan><tspan x="148.12" y="0">mplea</tspan></text><text class="cls-4" transform="translate(279.15 431.79)">la lla<tspan class="cls-5" x="71" y="0">v</tspan><tspan x="88.82" y="0">e </tspan><tspan class="cls-6" x="113.65" y="0">a tu futu</tspan><tspan class="cls-3" x="255.51" y="0">r</tspan><tspan class="cls-6" x="269.07" y="0">o</tspan></text><path class="cls-1" d="M435.46,179.27a26.87,26.87,0,1,0-41.65,22.42l-8.72,61.54h47l-8.72-61.54a26.87,26.87,0,0,0,12.09-22.42h0Zm0,0"/><g class="cls-7"><rect class="cls-8" x="408.59" y="134.65" width="152.96" height="152.96"/></g></svg>