<svg id="Capa_1" data-name="Capa 1" xmlns="http://www.w3.org/2000/svg" viewBox="0 0 841.89 595.28"><defs><style>.cls-1{font-size:120.52px;fill:#868686;font-family:Lato;font-style:italic;letter-spacing:-4px;}.cls-2{font-weight:700;letter-spacing:-2px;}.cls-3{fill:#c85721;}.cls-4{fill:#d27b45;}.cls-5{fill:#fff;}</style></defs><title>aplicaciones_fp_emplea</title><text class="cls-1" transform="translate(212.11 406.95)">f<tspan class="cls-2" x="35.55" y="0">p</tspan><tspan x="97.26" y="0">e</tspan><tspan x="148.12" y="0">mplea</tspan></text><path class="cls-3" d="M491.41,235.47a77.28,77.28,0,1,1-77.28-77.28,77.27,77.27,0,0,1,77.28,77.28h0Zm0,0"/><path class="cls-4" d="M336.85,235.47a77.28,77.28,0,0,0,77.28,77.28V158.2a77.28,77.28,0,0,0-77.28,77.28h0Zm0,0"/><path class="cls-5" d="M435.46,214.16a21.32,21.32,0,1,0-33.05,17.79l-6.92,48.83h37.3l-6.92-48.83a21.32,21.32,0,0,0,9.59-17.79h0Zm0,0"/></svg>