<svg id="Capa_1" data-name="Capa 1" xmlns="http://www.w3.org/2000/svg" viewBox="0 0 841.89 595.28"><defs><style>.cls-1{font-size:120.52px;fill:#868686;letter-spacing:-4px;}.cls-1,.cls-6{font-family:Lato;font-style:italic;}.cls-2,.cls-8{font-weight:700;}.cls-2,.cls-7{letter-spacing:-2px;}.cls-3,.cls-6{fill:#c85721;}.cls-4{fill:#d27b45;}.cls-5{fill:#fff;}.cls-6{font-size:44.38px;letter-spacing:-1px;}</style></defs><title>aplicaciones_fp_emplea</title><text class="cls-1" transform="translate(212.11 384.33)">f<tspan class="cls-2" x="35.55" y="0">p</tspan><tspan x="97.26" y="0">e</tspan><tspan x="148.12" y="0">mplea</tspan></text><path class="cls-3" d="M491.41,212.85a77.28,77.28,0,1,1-77.28-77.28,77.27,77.27,0,0,1,77.28,77.28h0Zm0,0"/><path class="cls-4" d="M336.85,212.85a77.28,77.28,0,0,0,77.28,77.28V135.57a77.28,77.28,0,0,0-77.28,77.28h0Zm0,0"/><path class="cls-5" d="M435.46,191.53a21.32,21.32,0,1,0-33.05,17.79l-6.92,48.83h37.3l-6.92-48.83a21.32,21.32,0,0,0,9.59-17.79h0Zm0,0"/><text class="cls-6" transform="translate(279.15 448.62)">la lla<tspan class="cls-7" x="71" y="0">v</tspan><tspan x="88.82" y="0">e </tspan><tspan class="cls-8" x="113.65" y="0">a tu futu</tspan><tspan class="cls-2" x="255.51" y="0">r</tspan><tspan class="cls-8" x="269.07" y="0">o</tspan></text></svg>